<svg xmlns="http://www.w3.org/2000/svg" viewBox="0 0 1600 520" role="img" aria-labelledby="t d"><title id="t">PermissionScope</title><desc id="d">PermissionScope repository banner with brand mark, product statement and verification pillars.</desc><defs><linearGradient id="bg" x1="0" y1="0" x2="1" y2="1"><stop stop-color="#0f1420"/><stop offset=".6" stop-color="#17315c"/><stop offset="1" stop-color="#10233f"/></linearGradient><linearGradient id="blue" x1="0" y1="0" x2="1" y2="1"><stop stop-color="#72d5ff"/><stop offset=".45" stop-color="#6d96f0"/><stop offset="1" stop-color="#2764e7"/></linearGradient><radialGradient id="glow"><stop stop-color="#2764e7" stop-opacity=".38"/><stop offset="1" stop-color="#2764e7" stop-opacity="0"/></radialGradient></defs><rect width="1600" height="520" rx="40" fill="url(#bg)"/><circle cx="1340" cy="60" r="360" fill="url(#glow)"/><circle cx="1360" cy="128" r="250" fill="none" stroke="#6d96f0" stroke-opacity=".15"/><circle cx="1360" cy="128" r="175" fill="none" stroke="#72d5ff" stroke-opacity=".12"/><g transform="translate(118 98)"><path d="M140 8 252 51v89c0 79-43 139-112 174C71 279 28 219 28 140V51z" fill="none" stroke="url(#blue)" stroke-width="22" stroke-linejoin="round"/><circle cx="140" cy="150" r="54" fill="none" stroke="#f7f9ff" stroke-width="20"/><path d="m180 190 54 54" stroke="#f7f9ff" stroke-width="20" stroke-linecap="round"/></g><g font-family="Segoe UI,Arial,sans-serif" fill="#fff"><text x="430" y="170" font-size="74" font-weight="700" letter-spacing="-3">PermissionScope</text><text x="434" y="230" font-size="28" fill="#c9d7ee">See who has access. Understand why.</text><text x="434" y="284" font-size="20" fill="#95a9c8">Local-first Windows permission analysis · open source · inspectable evidence</text></g><g font-family="Segoe UI,Arial,sans-serif" font-size="17" font-weight="600"><g transform="translate(430 338)"><rect width="178" height="54" rx="27" fill="#fff" fill-opacity=".08" stroke="#fff" stroke-opacity=".14"/><circle cx="29" cy="27" r="6" fill="#72d5ff"/><text x="48" y="33" fill="#eaf1ff">Windows Authz</text></g><g transform="translate(624 338)"><rect width="153" height="54" rx="27" fill="#fff" fill-opacity=".08" stroke="#fff" stroke-opacity=".14"/><circle cx="29" cy="27" r="6" fill="#72d5ff"/><text x="48" y="33" fill="#eaf1ff">Local-first</text></g><g transform="translate(793 338)"><rect width="151" height="54" rx="27" fill="#fff" fill-opacity=".08" stroke="#fff" stroke-opacity=".14"/><circle cx="29" cy="27" r="6" fill="#72d5ff"/><text x="48" y="33" fill="#eaf1ff">No telemetry</text></g><g transform="translate(960 338)"><rect width="164" height="54" rx="27" fill="#fff" fill-opacity=".08" stroke="#fff" stroke-opacity=".14"/><circle cx="29" cy="27" r="6" fill="#72d5ff"/><text x="48" y="33" fill="#eaf1ff">x64 + ARM64</text></g></g></svg>